<?xml version="1.0" standalone="no"?>
<!DOCTYPE svg PUBLIC "-//W3C//DTD SVG 20010904//EN"
 "http://www.w3.org/TR/2001/REC-SVG-20010904/DTD/svg10.dtd">
<svg version="1.0" xmlns="http://www.w3.org/2000/svg"
 width="970.000000pt" height="287.000000pt" viewBox="0 0 970.000000 287.000000"
 preserveAspectRatio="xMidYMid meet">

<g transform="translate(0.000000,287.000000) scale(0.100000,-0.100000)"
fill="#0B2342" stroke="none">
<path d="M593 2830 c-71 -13 -178 -54 -238 -93 -115 -73 -229 -211 -274 -333
-25 -67 -51 -208 -51 -279 0 -138 50 -327 156 -588 85 -207 109 -302 139 -542
43 -333 86 -512 163 -670 142 -292 386 -385 486 -186 32 62 50 125 86 306 60
297 112 440 184 502 45 40 65 41 106 6 86 -72 149 -241 221 -593 26 -129 55
-211 89 -259 88 -120 251 -104 382 38 141 152 229 394 283 781 50 356 53 366
165 645 110 271 143 507 101 710 -37 181 -132 334 -269 432 -131 94 -299 141
-457 129 -97 -7 -149 -22 -326 -92 -169 -67 -229 -71 -361 -25 -46 16 -136 48
-201 71 -103 37 -130 42 -225 45 -59 2 -130 0 -159 -5z m262 -175 c32 -9 121
-43 196 -76 76 -33 164 -64 196 -70 89 -17 180 -5 275 34 46 19 121 51 168 70
116 49 200 63 300 50 211 -28 366 -177 416 -400 13 -60 15 -104 11 -207 -8
-183 -46 -320 -172 -620 -41 -98 -63 -199 -95 -441 -50 -377 -133 -629 -243
-742 -74 -77 -113 -50 -147 105 -97 438 -151 582 -260 691 -67 67 -121 91
-201 91 -128 -1 -216 -72 -300 -244 -56 -116 -88 -228 -124 -439 -28 -159 -37
-192 -62 -219 -22 -25 -28 -23 -79 24 -110 101 -192 369 -239 775 -9 78 -20
155 -25 172 -5 17 -5 33 -1 35 4 3 39 -26 77 -65 l69 -70 0 -59 c0 -52 4 -63
28 -87 38 -38 113 -40 151 -4 77 72 12 204 -93 187 -34 -5 -39 -2 -141 97 -58
56 -106 105 -108 110 -2 4 107 7 242 7 l246 0 -6 -24 c-19 -78 93 -130 153
-70 22 22 25 32 20 71 -9 81 5 78 -362 79 -179 0 -327 3 -328 5 -2 2 -13 30
-25 62 l-21 57 426 0 425 0 35 -30 c45 -40 91 -40 133 -2 56 50 50 134 -12
172 -48 29 -93 26 -129 -9 -16 -16 -29 -39 -29 -50 0 -21 -1 -21 -439 -21
l-439 0 -11 30 -10 30 287 0 287 0 92 90 c89 88 92 90 138 90 40 0 52 5 81 34
40 40 45 83 14 133 -26 43 -54 56 -107 50 -53 -6 -79 -28 -94 -77 -9 -30 -8
-43 6 -70 16 -31 16 -33 -2 -50 -10 -9 -51 -47 -90 -84 l-73 -66 -281 2 -282
3 -23 63 -24 62 284 0 c230 0 286 3 295 14 9 11 8 18 -5 31 -15 15 -36 16
-151 13 -73 -1 -133 -1 -133 1 0 5 58 79 103 131 32 37 38 51 35 78 -3 28 0
35 18 42 91 35 80 184 -16 210 -77 21 -140 -32 -140 -116 0 -31 7 -44 41 -75
53 -49 50 -63 -42 -180 l-71 -89 -118 0 -118 0 -11 75 c-52 350 88 612 364
681 70 17 200 17 270 -1z m-177 -361 c24 -17 30 -62 10 -82 -29 -29 -88 1 -88
44 0 19 32 54 50 54 3 0 16 -7 28 -16z m490 -307 c6 -5 12 -22 12 -38 0 -38
-39 -66 -69 -49 -28 15 -40 41 -30 67 14 39 51 48 87 20z m186 -363 c32 -31
14 -84 -28 -84 -23 0 -56 27 -56 47 0 47 52 70 84 37z m-304 -269 c15 -18 6
-61 -14 -68 -8 -3 -25 2 -38 12 -20 16 -21 22 -10 45 13 29 43 34 62 11z
m-295 -289 c37 -56 -41 -108 -79 -54 -20 28 -20 30 4 56 27 29 56 28 75 -2z"/>
<path d="M8195 2205 c-102 -36 -136 -168 -64 -250 37 -41 86 -59 150 -53 163
16 203 232 55 299 -49 22 -87 23 -141 4z"/>
<path d="M3260 1440 l0 -762 368 4 c367 4 367 4 456 32 327 100 523 323 555
633 23 225 -42 434 -184 590 -108 118 -217 182 -395 230 -92 25 -107 26 -447
31 l-353 4 0 -762z m765 501 c221 -80 348 -293 331 -553 -15 -228 -130 -386
-336 -463 -70 -27 -88 -29 -273 -34 l-197 -6 0 544 0 543 208 -4 c181 -4 215
-8 267 -27z"/>
<path d="M7370 1940 l0 -159 -102 -3 -103 -3 -3 -97 -3 -98 106 0 105 0 0
-301 c0 -334 8 -401 60 -483 60 -94 176 -146 326 -146 45 0 106 5 134 11 l50
11 0 99 c0 54 -4 99 -9 99 -5 0 -32 -5 -59 -11 -109 -25 -199 18 -221 105 -7
28 -11 153 -11 330 l0 286 150 0 150 0 0 100 0 100 -150 0 -150 0 0 160 0 160
-135 0 -135 0 0 -160z"/>
<path d="M5223 1790 c-122 -22 -224 -81 -316 -180 -93 -100 -135 -201 -144
-351 -11 -180 40 -323 158 -441 119 -120 276 -176 463 -165 162 9 275 59 386
171 63 64 66 57 -55 120 l-75 38 -41 -37 c-23 -21 -67 -49 -98 -64 -77 -35
-209 -36 -288 -2 -83 37 -154 127 -177 224 l-6 27 430 0 430 0 0 93 c0 124
-14 197 -55 283 -62 129 -164 217 -304 263 -75 25 -229 35 -308 21z m253 -208
c80 -41 154 -156 154 -238 l0 -24 -296 0 -296 0 7 38 c18 100 82 186 170 229
44 21 61 24 135 20 62 -2 96 -9 126 -25z"/>
<path d="M6559 1790 c-67 -12 -155 -56 -207 -106 -25 -24 -47 -44 -49 -44 -2
0 -3 32 -3 70 l0 70 -135 0 -135 0 0 -550 0 -550 138 0 137 0 0 343 0 342 33
67 c49 101 127 148 241 148 95 -1 161 -42 198 -125 16 -36 18 -80 21 -407 l3
-368 140 0 139 0 0 323 c0 348 -9 466 -40 551 -67 178 -260 273 -481 236z"/>
<path d="M9120 1790 c-65 -14 -142 -55 -199 -106 l-51 -46 0 71 0 71 -140 0
-140 0 0 -550 0 -550 140 0 140 0 0 333 c0 375 4 403 67 476 92 108 274 123
360 30 53 -58 57 -86 61 -476 l3 -363 135 0 135 0 -4 403 c-4 445 -6 459 -71
554 -67 98 -174 153 -311 159 -44 2 -100 -1 -125 -6z"/>
<path d="M8110 1230 l0 -550 140 0 140 0 0 550 0 550 -140 0 -140 0 0 -550z"/>
</g>
</svg>
